<svg xmlns="http://www.w3.org/2000/svg" width="780" height="580" font-family="Segoe UI, Arial, sans-serif">
  <rect width="780" height="580" fill="#F8F9FA" rx="8"/>

  <!-- Title -->
  <rect x="10" y="10" width="760" height="46" fill="#2C3E50" rx="6"/>
  <text x="390" y="40" font-size="16" font-weight="bold" fill="white" text-anchor="middle">C4 — Nivel 3: Componentes · ANTES (Big Ball of Mud)</text>

  <!-- Main flow -->
  <!-- MainActivity -->
  <rect x="310" y="80" width="160" height="44" fill="#3498DB" rx="6"/>
  <text x="390" y="106" font-size="13" font-weight="bold" fill="white" text-anchor="middle">MainActivity</text>

  <!-- Arrow to NavGraph -->
  <line x1="390" y1="124" x2="390" y2="152" stroke="#555" stroke-width="2"/>
  <polygon points="384,150 396,150 390,162" fill="#555"/>

  <!-- NavGraph -->
  <rect x="295" y="162" width="190" height="44" fill="#8E44AD" rx="6"/>
  <text x="390" y="183" font-size="12" font-weight="bold" fill="white" text-anchor="middle">NavGraph.kt</text>
  <text x="390" y="198" font-size="10" fill="#E8DAEF" text-anchor="middle">nav + Screen inline</text>

  <!-- Arrows from NavGraph -->
  <!-- Left: LoginScreen -->
  <line x1="296" y1="184" x2="170" y2="274" stroke="#888" stroke-width="1.5" stroke-dasharray="5,3"/>
  <!-- Right: MainScreen -->
  <line x1="484" y1="184" x2="560" y2="250" stroke="#888" stroke-width="1.5" stroke-dasharray="5,3"/>
  <!-- Down: RegisterScreen (absent) -->
  <line x1="390" y1="206" x2="390" y2="250" stroke="#BBB" stroke-width="1.5" stroke-dasharray="5,3"/>

  <!-- LoginScreen -->
  <rect x="60" y="274" width="200" height="64" fill="#E74C3C" rx="6"/>
  <text x="160" y="296" font-size="12" font-weight="bold" fill="white" text-anchor="middle">LoginScreen.kt</text>
  <text x="160" y="312" font-size="10" fill="#FDECEA" text-anchor="middle">Auth directamente en UI</text>
  <text x="160" y="326" font-size="10" fill="#FDECEA" text-anchor="middle">⚠ Constants.TEST_USER</text>

  <!-- RegisterScreen (absent) -->
  <rect x="290" y="250" width="200" height="44" fill="#BDC3C7" rx="6" stroke="#999" stroke-dasharray="5,3"/>
  <text x="390" y="272" font-size="12" fill="#777" text-anchor="middle" font-style="italic">RegisterScreen</text>
  <text x="390" y="287" font-size="10" fill="#999" text-anchor="middle">NO EXISTE</text>

  <!-- MainScreen -->
  <rect x="510" y="250" width="200" height="44" fill="#27AE60" rx="6"/>
  <text x="610" y="271" font-size="12" font-weight="bold" fill="white" text-anchor="middle">MainScreen.kt</text>
  <text x="610" y="286" font-size="10" fill="#D5F5E3" text-anchor="middle">Scaffold + BottomBar</text>

  <!-- Arrow down from MainScreen -->
  <line x1="610" y1="294" x2="610" y2="318" stroke="#555" stroke-width="1.5"/>
  <polygon points="604,316 616,316 610,328" fill="#555"/>

  <!-- Screens row under MainScreen -->
  <rect x="380" y="328" width="460" height="180" fill="#FDFEFE" rx="8" stroke="#27AE60" stroke-width="1.5"/>
  <text x="610" y="350" font-size="11" fill="#27AE60" text-anchor="middle" font-weight="bold">NavHost interno (BottomBar)</text>

  <rect x="398" y="360" width="120" height="48" fill="#FDEDEC" rx="5" stroke="#E74C3C" stroke-width="1"/>
  <text x="458" y="378" font-size="10" font-weight="bold" fill="#333" text-anchor="middle">HomeScreen</text>
  <text x="458" y="392" font-size="9" fill="#E74C3C" text-anchor="middle">hardcodeado</text>

  <rect x="528" y="360" width="120" height="48" fill="#FDEDEC" rx="5" stroke="#E74C3C" stroke-width="1"/>
  <text x="588" y="378" font-size="10" font-weight="bold" fill="#333" text-anchor="middle">SaludScreen</text>
  <text x="588" y="392" font-size="9" fill="#E74C3C" text-anchor="middle">hardcodeado</text>

  <rect x="658" y="360" width="120" height="48" fill="#FDEDEC" rx="5" stroke="#E74C3C" stroke-width="1"/>
  <text x="718" y="378" font-size="10" font-weight="bold" fill="#333" text-anchor="middle">ActividadScreen</text>
  <text x="718" y="392" font-size="9" fill="#E74C3C" text-anchor="middle">hardcodeado</text>

  <rect x="398" y="418" width="120" height="48" fill="#FDEDEC" rx="5" stroke="#E74C3C" stroke-width="1"/>
  <text x="458" y="436" font-size="10" font-weight="bold" fill="#333" text-anchor="middle">CitasScreen</text>
  <text x="458" y="450" font-size="9" fill="#E74C3C" text-anchor="middle">hardcodeado</text>

  <rect x="528" y="418" width="120" height="48" fill="#FDEDEC" rx="5" stroke="#E74C3C" stroke-width="1"/>
  <text x="588" y="436" font-size="10" font-weight="bold" fill="#333" text-anchor="middle">PerfilScreen</text>
  <text x="588" y="450" font-size="9" fill="#E74C3C" text-anchor="middle">hardcodeado</text>

  <!-- Antipatterns box -->
  <rect x="30" y="328" width="320" height="200" fill="#FDECEA" rx="8" stroke="#E74C3C" stroke-width="1.5"/>
  <text x="190" y="352" font-size="12" font-weight="bold" fill="#C0392B" text-anchor="middle">Antipatrones identificados</text>
  <text x="60" y="376" font-size="11" fill="#C0392B">✗  God Composable (todo en un archivo)</text>
  <text x="60" y="398" font-size="11" fill="#C0392B">✗  Magic Strings / Magic Numbers</text>
  <text x="60" y="420" font-size="11" fill="#C0392B">✗  Duplicación: TabRow copiado x4</text>
  <text x="60" y="442" font-size="11" fill="#C0392B">✗  Credenciales en texto plano</text>
  <text x="60" y="464" font-size="11" fill="#C0392B">✗  Sin separación de capas</text>
  <text x="60" y="486" font-size="11" fill="#C0392B">✗  Sin gestión de estado</text>
  <text x="60" y="508" font-size="11" fill="#C0392B">✗  Hilt declarado pero no configurado</text>

  <!-- Bottom bar -->
  <rect x="10" y="545" width="760" height="24" fill="#2C3E50" rx="4"/>
  <text x="390" y="561" font-size="10" fill="#BDC3C7" text-anchor="middle">Commit base: 345c736 — "Create app vivebien" (21/03/2025)</text>
</svg>
