<svg xmlns="http://www.w3.org/2000/svg" width="900" height="660" font-family="Segoe UI, Arial, sans-serif">
  <rect width="900" height="660" fill="#F8F9FA" rx="8"/>

  <!-- Title -->
  <rect x="10" y="10" width="880" height="46" fill="#2C3E50" rx="6"/>
  <text x="450" y="40" font-size="16" font-weight="bold" fill="white" text-anchor="middle">C4 — Nivel 2: Contenedores · DESPUÉS</text>

  <rect x="340" y="64" width="220" height="24" fill="#27AE60" rx="12"/>
  <text x="450" y="81" font-size="11" fill="white" text-anchor="middle" font-weight="bold">Arquitectura Mejorada — Monolito Modular</text>

  <!-- APK container -->
  <rect x="20" y="100" width="620" height="490" fill="#FDFEFE" rx="10" stroke="#BDC3C7" stroke-width="2" stroke-dasharray="8,4"/>
  <text x="330" y="122" font-size="12" fill="#999" text-anchor="middle" font-style="italic">Aplicación Android (APK)</text>

  <!-- Presentation Layer -->
  <rect x="40" y="134" width="180" height="430" fill="#EBF5FB" rx="8" stroke="#2980B9" stroke-width="2"/>
  <text x="130" y="158" font-size="12" font-weight="bold" fill="#1A5276" text-anchor="middle">Presentation</text>
  <text x="130" y="173" font-size="10" fill="#666" text-anchor="middle">Layer</text>

  <rect x="54" y="184" width="152" height="32" fill="#D6EAF8" rx="5"/>
  <text x="130" y="204" font-size="10" font-weight="bold" fill="#1A5276" text-anchor="middle">Composable Screens</text>

  <rect x="54" y="224" width="152" height="24" fill="#AED6F1" rx="4"/>
  <text x="130" y="240" font-size="10" fill="#1A5276" text-anchor="middle">LoginScreen</text>
  <rect x="54" y="252" width="152" height="24" fill="#AED6F1" rx="4"/>
  <text x="130" y="268" font-size="10" fill="#1A5276" text-anchor="middle">RegisterScreen</text>
  <rect x="54" y="280" width="152" height="24" fill="#AED6F1" rx="4"/>
  <text x="130" y="296" font-size="10" fill="#1A5276" text-anchor="middle">HomeScreen</text>
  <rect x="54" y="308" width="152" height="24" fill="#AED6F1" rx="4"/>
  <text x="130" y="324" font-size="10" fill="#1A5276" text-anchor="middle">SaludScreen</text>
  <rect x="54" y="336" width="152" height="24" fill="#AED6F1" rx="4"/>
  <text x="130" y="352" font-size="10" fill="#1A5276" text-anchor="middle">ActividadScreen</text>
  <rect x="54" y="364" width="152" height="24" fill="#AED6F1" rx="4"/>
  <text x="130" y="380" font-size="10" fill="#1A5276" text-anchor="middle">CitasScreen</text>
  <rect x="54" y="392" width="152" height="24" fill="#AED6F1" rx="4"/>
  <text x="130" y="408" font-size="10" fill="#1A5276" text-anchor="middle">PerfilScreen</text>

  <rect x="54" y="428" width="152" height="32" fill="#D6EAF8" rx="5"/>
  <text x="130" y="448" font-size="10" font-weight="bold" fill="#1A5276" text-anchor="middle">ViewModels (×7)</text>
  <rect x="54" y="464" width="152" height="24" fill="#AED6F1" rx="4"/>
  <text x="130" y="480" font-size="10" fill="#1A5276" text-anchor="middle">StateFlow&lt;UiState&gt;</text>
  <rect x="54" y="492" width="152" height="24" fill="#AED6F1" rx="4"/>
  <text x="130" y="508" font-size="10" fill="#1A5276" text-anchor="middle">@HiltViewModel</text>
  <rect x="54" y="520" width="152" height="24" fill="#AED6F1" rx="4"/>
  <text x="130" y="536" font-size="10" fill="#1A5276" text-anchor="middle">NavGraph + NavController</text>

  <!-- Arrows Presentation → Domain -->
  <line x1="222" y1="350" x2="252" y2="350" stroke="#2980B9" stroke-width="2"/>
  <polygon points="250,344 262,350 250,356" fill="#2980B9"/>

  <!-- Domain Layer -->
  <rect x="252" y="134" width="180" height="430" fill="#EAF7EF" rx="8" stroke="#27AE60" stroke-width="2"/>
  <text x="342" y="158" font-size="12" font-weight="bold" fill="#1D6A3E" text-anchor="middle">Domain</text>
  <text x="342" y="173" font-size="10" fill="#666" text-anchor="middle">Layer</text>

  <rect x="266" y="184" width="152" height="32" fill="#D5F5E3" rx="5"/>
  <text x="342" y="204" font-size="10" font-weight="bold" fill="#1D6A3E" text-anchor="middle">Use Cases (×20)</text>

  <rect x="266" y="224" width="152" height="24" fill="#A9DFBF" rx="4"/>
  <text x="342" y="240" font-size="10" fill="#1D6A3E" text-anchor="middle">LoginUseCase</text>
  <rect x="266" y="252" width="152" height="24" fill="#A9DFBF" rx="4"/>
  <text x="342" y="268" font-size="10" fill="#1D6A3E" text-anchor="middle">RegisterUseCase</text>
  <rect x="266" y="280" width="152" height="24" fill="#A9DFBF" rx="4"/>
  <text x="342" y="296" font-size="10" fill="#1D6A3E" text-anchor="middle">AddActivityUseCase</text>
  <rect x="266" y="308" width="152" height="24" fill="#A9DFBF" rx="4"/>
  <text x="342" y="324" font-size="10" fill="#1D6A3E" text-anchor="middle">AddVitalSignUseCase</text>
  <rect x="266" y="336" width="152" height="24" fill="#A9DFBF" rx="4"/>
  <text x="342" y="352" font-size="10" fill="#1D6A3E" text-anchor="middle">AddAppointmentUseCase</text>
  <rect x="266" y="364" width="152" height="24" fill="#A9DFBF" rx="4"/>
  <text x="342" y="380" font-size="10" fill="#1D6A3E" text-anchor="middle">UpdateProfileUseCase</text>
  <text x="342" y="402" font-size="10" fill="#888" text-anchor="middle">+ 14 más...</text>

  <rect x="266" y="420" width="152" height="32" fill="#D5F5E3" rx="5"/>
  <text x="342" y="440" font-size="10" font-weight="bold" fill="#1D6A3E" text-anchor="middle">Domain Models</text>

  <rect x="266" y="458" width="152" height="24" fill="#A9DFBF" rx="4"/>
  <text x="342" y="474" font-size="10" fill="#1D6A3E" text-anchor="middle">User · ActivityRecord</text>
  <rect x="266" y="486" width="152" height="24" fill="#A9DFBF" rx="4"/>
  <text x="342" y="502" font-size="10" fill="#1D6A3E" text-anchor="middle">Appointment · Medication</text>
  <rect x="266" y="514" width="152" height="24" fill="#A9DFBF" rx="4"/>
  <text x="342" y="530" font-size="10" fill="#1D6A3E" text-anchor="middle">VitalSign · DailyStats</text>

  <!-- Arrows Data → Domain -->
  <line x1="462" y1="350" x2="432" y2="350" stroke="#E67E22" stroke-width="2"/>
  <polygon points="434,344 422,350 434,356" fill="#E67E22"/>

  <!-- Data Layer -->
  <rect x="462" y="134" width="160" height="430" fill="#FEF9E7" rx="8" stroke="#E67E22" stroke-width="2"/>
  <text x="542" y="158" font-size="12" font-weight="bold" fill="#7D6608" text-anchor="middle">Data</text>
  <text x="542" y="173" font-size="10" fill="#666" text-anchor="middle">Layer</text>

  <rect x="476" y="184" width="132" height="32" fill="#FDEBD0" rx="5"/>
  <text x="542" y="204" font-size="10" font-weight="bold" fill="#7D6608" text-anchor="middle">Repositories (×6)</text>

  <rect x="476" y="224" width="132" height="24" fill="#FAD7A0" rx="4"/>
  <text x="542" y="240" font-size="10" fill="#7D6608" text-anchor="middle">AuthRepositoryImpl</text>
  <rect x="476" y="252" width="132" height="24" fill="#FAD7A0" rx="4"/>
  <text x="542" y="268" font-size="10" fill="#7D6608" text-anchor="middle">ActivityRepositoryImpl</text>
  <rect x="476" y="280" width="132" height="24" fill="#FAD7A0" rx="4"/>
  <text x="542" y="296" font-size="10" fill="#7D6608" text-anchor="middle">HealthRepositoryImpl</text>
  <rect x="476" y="308" width="132" height="24" fill="#FAD7A0" rx="4"/>
  <text x="542" y="324" font-size="10" fill="#7D6608" text-anchor="middle">AppointmentsRepositoryImpl</text>
  <rect x="476" y="336" width="132" height="24" fill="#FAD7A0" rx="4"/>
  <text x="542" y="352" font-size="10" fill="#7D6608" text-anchor="middle">ProfileRepositoryImpl</text>
  <rect x="476" y="364" width="132" height="24" fill="#FAD7A0" rx="4"/>
  <text x="542" y="380" font-size="10" fill="#7D6608" text-anchor="middle">HomeRepositoryImpl</text>

  <rect x="476" y="400" width="132" height="32" fill="#FDEBD0" rx="5"/>
  <text x="542" y="420" font-size="10" font-weight="bold" fill="#7D6608" text-anchor="middle">Entity Mappers</text>
  <rect x="476" y="438" width="132" height="24" fill="#FAD7A0" rx="4"/>
  <text x="542" y="454" font-size="10" fill="#7D6608" text-anchor="middle">toDomain() / toEntity()</text>

  <rect x="476" y="470" width="132" height="32" fill="#FDEBD0" rx="5"/>
  <text x="542" y="490" font-size="10" font-weight="bold" fill="#7D6608" text-anchor="middle">DAOs (×4)</text>
  <rect x="476" y="506" width="132" height="24" fill="#FAD7A0" rx="4"/>
  <text x="542" y="522" font-size="10" fill="#7D6608" text-anchor="middle">Flow&lt;List&lt;Entity&gt;&gt;</text>

  <!-- External stores -->
  <!-- Arrow from Data to Room -->
  <line x1="660" y1="310" x2="680" y2="310" stroke="#555" stroke-width="2"/>
  <polygon points="678,304 690,310 678,316" fill="#555"/>

  <!-- Room DB -->
  <rect x="690" y="100" width="190" height="240" fill="#E9F7EF" rx="8" stroke="#27AE60" stroke-width="2"/>
  <text x="785" y="126" font-size="12" font-weight="bold" fill="#1D8348" text-anchor="middle">Room Database</text>
  <text x="785" y="142" font-size="10" fill="#666" text-anchor="middle">vivebien_db (v1)</text>
  <line x1="710" y1="150" x2="860" y2="150" stroke="#ddd"/>

  <rect x="710" y="160" width="150" height="32" fill="#D5F5E3" rx="5"/>
  <text x="785" y="178" font-size="10" font-weight="bold" fill="#1D8348" text-anchor="middle">activities</text>
  <rect x="710" y="198" width="150" height="32" fill="#D5F5E3" rx="5"/>
  <text x="785" y="216" font-size="10" font-weight="bold" fill="#1D8348" text-anchor="middle">appointments</text>
  <rect x="710" y="236" width="150" height="32" fill="#D5F5E3" rx="5"/>
  <text x="785" y="254" font-size="10" font-weight="bold" fill="#1D8348" text-anchor="middle">medications</text>
  <rect x="710" y="274" width="150" height="32" fill="#D5F5E3" rx="5"/>
  <text x="785" y="292" font-size="10" font-weight="bold" fill="#1D8348" text-anchor="middle">vital_signs</text>

  <!-- Arrow from Data to DataStore -->
  <line x1="660" y1="450" x2="680" y2="450" stroke="#555" stroke-width="2"/>
  <polygon points="678,444 690,450 678,456" fill="#555"/>

  <!-- DataStore -->
  <rect x="690" y="360" width="190" height="180" fill="#EBF5FB" rx="8" stroke="#2980B9" stroke-width="2"/>
  <text x="785" y="386" font-size="12" font-weight="bold" fill="#1A5276" text-anchor="middle">DataStore Prefs</text>
  <line x1="710" y1="394" x2="860" y2="394" stroke="#ddd"/>

  <rect x="710" y="404" width="150" height="48" fill="#D6EAF8" rx="5"/>
  <text x="785" y="422" font-size="10" font-weight="bold" fill="#1A5276" text-anchor="middle">auth_prefs</text>
  <text x="785" y="438" font-size="9" fill="#555" text-anchor="middle">is_logged_in · display_name</text>
  <text x="785" y="450" font-size="9" fill="#555" text-anchor="middle">registered_user · pass</text>

  <rect x="710" y="460" width="150" height="48" fill="#D6EAF8" rx="5"/>
  <text x="785" y="478" font-size="10" font-weight="bold" fill="#1A5276" text-anchor="middle">profile_prefs</text>
  <text x="785" y="494" font-size="9" fill="#555" text-anchor="middle">email · phone · birth_date</text>
  <text x="785" y="506" font-size="9" fill="#555" text-anchor="middle">notifications · dark_mode</text>

  <!-- Hilt DI -->
  <rect x="690" y="558" width="190" height="72" fill="#F4ECF7" rx="8" stroke="#8E44AD" stroke-width="2"/>
  <text x="785" y="582" font-size="12" font-weight="bold" fill="#6C3483" text-anchor="middle">Hilt DI Container</text>
  <text x="785" y="600" font-size="10" fill="#666" text-anchor="middle">AppModule → @Binds ×6</text>
  <text x="785" y="616" font-size="10" fill="#666" text-anchor="middle">DatabaseModule → @Provides ×5</text>

  <!-- Bottom -->
  <rect x="10" y="610" width="660" height="38" fill="#2C3E50" rx="4"/>
  <text x="330" y="634" font-size="11" fill="white" text-anchor="middle" font-weight="bold">Commit: 54a501d — feat: hacer la app completamente funcional (58 archivos, +2039 líneas)</text>
</svg>
